<svg width="24" height="24" viewBox="0 0 24 24" fill="none" xmlns="http://www.w3.org/2000/svg">
<path d="M21.531 7.28007L9.53104 19.2801C9.46139 19.3498 9.37867 19.4051 9.28762 19.4429C9.19657 19.4806 9.09898 19.5 9.00042 19.5C8.90186 19.5 8.80426 19.4806 8.71321 19.4429C8.62216 19.4051 8.53945 19.3498 8.46979 19.2801L3.21979 14.0301C3.07906 13.8893 3 13.6985 3 13.4994C3 13.3004 3.07906 13.1095 3.21979 12.9688C3.36052 12.8281 3.55139 12.749 3.75042 12.749C3.94944 12.749 4.14031 12.8281 4.28104 12.9688L9.00042 17.6891L20.4698 6.21882C20.6105 6.07808 20.8014 5.99902 21.0004 5.99902C21.1994 5.99902 21.3903 6.07808 21.531 6.21882C21.6718 6.35955 21.7508 6.55042 21.7508 6.74944C21.7508 6.94846 21.6718 7.13934 21.531 7.28007Z" fill="#00884F"/>
</svg>
